<svg width="22" height="22" viewBox="0 0 22 22" fill="none" xmlns="http://www.w3.org/2000/svg">
<path fill-rule="evenodd" clip-rule="evenodd" d="M19.5938 4.83317C19.5938 3.49282 18.5072 2.40625 17.1668 2.40625H4.83317C3.49282 2.40625 2.40625 3.49282 2.40625 4.83317V17.1668C2.40625 18.5072 3.49282 19.5938 4.83317 19.5938H17.1668C18.5072 19.5938 19.5938 18.5072 19.5938 17.1668V4.83317ZM16.6452 9.90249C15.5363 9.91489 14.503 9.57965 13.5958 8.95875V13.3174C13.5958 15.2545 12.2697 16.9186 10.3947 17.3532C7.83658 17.9368 5.67104 16.0866 5.39791 13.8762C5.11229 11.6658 6.52201 9.72866 8.6827 9.29403C9.10489 9.20713 9.73992 9.20713 10.0675 9.28164V11.6162C9.96673 11.5914 9.87233 11.5665 9.77301 11.5541C8.92858 11.4051 8.11074 11.8273 7.77545 12.5972C7.44019 13.3671 7.66459 14.2612 8.34756 14.7828C8.91874 15.2298 9.55251 15.2918 10.1982 14.9938C10.844 14.7082 11.191 14.1867 11.2655 13.4789C11.2779 13.3796 11.2772 13.2678 11.2772 13.156V4.77396C11.2772 4.53804 11.2791 4.54833 11.515 4.54833H13.3652C13.5019 4.54833 13.5516 4.56799 13.564 4.72951C13.6632 6.16997 14.7569 7.39673 16.1601 7.58302C16.3091 7.60783 16.4688 7.61767 16.6452 7.63007V9.90249Z" fill="white"/>
</svg>
