<svg width="22" height="22" viewBox="0 0 22 22" fill="none" xmlns="http://www.w3.org/2000/svg">
<path d="M20.2232 6.36152C20.1137 5.9534 19.8988 5.58122 19.6002 5.28223C19.3016 4.98323 18.9297 4.76791 18.5217 4.65781C17.0199 4.25391 11 4.25391 11 4.25391C11 4.25391 4.98008 4.25391 3.47832 4.65566C3.07016 4.7654 2.69806 4.98061 2.39939 5.27966C2.10071 5.57871 1.88598 5.95108 1.77676 6.35938C1.375 7.86328 1.375 11 1.375 11C1.375 11 1.375 14.1367 1.77676 15.6385C1.99805 16.4678 2.65117 17.1209 3.47832 17.3422C4.98008 17.7461 11 17.7461 11 17.7461C11 17.7461 17.0199 17.7461 18.5217 17.3422C19.351 17.1209 20.002 16.4678 20.2232 15.6385C20.625 14.1367 20.625 11 20.625 11C20.625 11 20.625 7.86328 20.2232 6.36152ZM9.08789 13.8789V8.12109L14.0723 10.9785L9.08789 13.8789Z" fill="white"/>
</svg>
