<svg width="26" height="26" viewBox="0 0 26 26" fill="none" xmlns="http://www.w3.org/2000/svg">
<path fill-rule="evenodd" clip-rule="evenodd" d="M20.3089 4.22281C20.3094 4.22299 20.31 4.22327 20.311 4.22431L21.7758 5.6891C21.7768 5.69014 21.7771 5.69062 21.7773 5.69123C21.7775 5.69179 21.7775 5.69241 21.7773 5.69298C21.7771 5.69356 21.7768 5.69405 21.7758 5.69509L14.4708 13L21.7758 20.305C21.7768 20.306 21.7771 20.3065 21.7773 20.3071C21.7775 20.3077 21.7775 20.3083 21.7773 20.3089C21.7771 20.3095 21.7768 20.31 21.7758 20.311L20.311 21.7758C20.31 21.7768 20.3095 21.7771 20.3089 21.7773C20.3083 21.7775 20.3077 21.7775 20.3071 21.7773C20.3065 21.7771 20.306 21.7768 20.305 21.7758L13 14.4708L5.69509 21.7758C5.69407 21.7768 5.69356 21.7771 5.69298 21.7773C5.6924 21.7775 5.69178 21.7775 5.6912 21.7773C5.69064 21.7771 5.69014 21.7768 5.6891 21.7758L4.22431 20.311C4.22327 20.31 4.22299 20.3095 4.22281 20.3089C4.2226 20.3083 4.2226 20.3077 4.22281 20.3071C4.22299 20.3065 4.22327 20.306 4.22431 20.305L11.5292 13L4.22431 5.69509C4.22327 5.69407 4.22299 5.69356 4.22281 5.69298C4.22264 5.6924 4.22264 5.69178 4.22281 5.6912C4.22299 5.69064 4.22327 5.69014 4.22431 5.6891L5.6891 4.22431C5.69014 4.22327 5.69062 4.22299 5.69123 4.22281C5.69179 4.2226 5.69241 4.2226 5.69298 4.22281C5.69356 4.22299 5.69405 4.22327 5.69509 4.22431L13 11.5292L20.305 4.22431C20.306 4.22327 20.3065 4.22299 20.3071 4.22281C20.3077 4.22264 20.3083 4.22264 20.3089 4.22281H20.3089Z" fill="black"/>
</svg>
